<svg xmlns="http://www.w3.org/2000/svg" viewBox="0 0 300 77">
  <g fill="none" fill-rule="evenodd">
    <path fill="#518EBD" d="M164.4951 14.2998c-2.968-1.163-2.062-5.397 1.133-5.719 1.204-.119 2.346.423 2.779 1.551.762 1.984-1.265 4.973-3.912 4.168m12.605 3.653c-3.687 6.082-16.903 6.986-20.844-.566-4.28-9.588 4.955-16.776 13.172-13.427 4.666 1.902 4.805 9.564 1.983 7.283-.659-.533-.645-2.139-1.373-3.043-.938-1.163-1.938-2.188-4.465-2.275-2.656-.095-5.245 1.72-6.388 3.79-.651 1.183-.734 3.225-.509 4.545.226 1.325.832 2.526 1.643 3.311 1.501 1.45 3.821 2.302 5.821 2.098 4.572-.46 4.4-3.23 4.768-3.692.087-.107.404.108.822.361 4.866 2.959 7.008-9.307 1.191-13.993-3.187-2.565-7.811-2.831-11.712-1.734-8.056 2.266-11.552 8.536-9.114 16.993 2.016 4.142 4.853 6.411 8.013 7.55-.328.033-.652.077-.969.143-8.837-.205-15.245 6.456-17.852 9.604-.653.68-.443 1.972.482 2.898.926.925 2.215 1.135 2.89.475.784-.765 1.527-1.605 2.292-2.408.112-.122.237-.253.35-.373.564-.63 1.167-1.289 1.809-1.884.136-.123.265-.239.407-.355 1.487-1.14 3.665-1.766 5.226-.83 3.427 1.869 1.556 6.537-.259 9.335-.072.136-10.223 17.686-12.389 21.428-.161.201-.298.409-.382.628-.417 1.291.636 2.265 2.395 2.269 1.759.002 3.553-.969 4.075-2.18.176-.189 7.177-13.335 7.173-13.327.243-.281 2.341-4.559 6.521-2.704 3.244 1.766 1.245 5.266.463 7.693-.134.79.681 1.281 1.903 1.294 1.314.014 2.587-.53 2.843-1.215 1.91-4.293 4.749-12.425-4.611-13.989.04-.073.116-.401.152-.485.54-1.736 1.272-4.74 3.455-3.442 1.85.948 3.874.695 5.519.011.139-.048.28-.108.418-.155 1.299-.513 2.447224-1.1534888 3.120365-1.6100683.673142-.4565795 1.605635-1.0039317 1.929635-1.3289317 1.025435-1.0286003 1.447-2.552.944-3.402-.366-.618-1.12-.708-1.899-.319-.333.033-6.707 5.024-10.301 1.429-1.439-1.371-.337-3.76-1.437-5.365-.095-.405-.308-.725-.587-.989.384.044.768.08 1.154.103 5.213.307 10.621-1.321 14.376-5.462.072-.122 1.964-2.905-.317-3.581-1.485-.196-1.859.822-1.902.893z"/>
    <path fill="#518EBF" d="M176.5049 45.9106c-1.27 0-2.271 1.046-2.271 2.33 0 1.308 1.001 2.33 2.204 2.33 1.271 0 2.249-1.069 2.249-2.33 0-1.284-.978-2.33-2.182-2.33m-1.9824 19.0298h3.877v-12.461l-3.877.382v12.079zm13.2988-12.58c-1.848 0-2.984.881-3.319 1.166-.046-.571-.134-.903-.223-1.142l-3.563.643c.355 1.806.355 2.925.355 4.113v7.8h3.876v-8.466c.334-.332.801-.667 1.27-.714.111-.022.199-.022.31 0 .401.047.648.333.648 1.332v7.848h3.875v-9.202c0-1.285-.311-3.378-3.229-3.378m9.7783-1.3067c0-.548.424-.881.892-.881.422 0 .846.119 1.113.285l.914-2.592c-.848-.498-1.672-.641-2.852-.641-1.448 0-4.01.428-4.01 3.972 0 .476 0 1.044.067 1.473h-.979v2.711h.979v9.56h3.876v-9.56h1.915l.514-2.711h-2.429v-1.616zm8.9326 10.5117c-.244.71-.646.782-.936.782-.511 0-.868-.188-1.046-.881-.088-.354-.179-.924-.179-2.303 0-2.213.068-3.094.512-3.616.247-.261.446-.309.69-.309.313 0 .58.07.825.403.312.428.402 1.143.402 2.951 0 .808-.045 2.306-.268 2.973m-.802-9.205c-1.938 0-3.186.834-3.988 1.761-.778.904-1.56 2.496-1.56 4.969 0 2.069.58 3.402 1.383 4.4.712.88 1.871 1.763 3.943 1.763 1.358 0 2.584-.433 3.653-1.478 1.358-1.332 1.827-3.14 1.827-5.278 0-2.308-.645-3.735-1.472-4.638-.801-.881-2.07-1.499-3.786-1.499m13.6331 4.9238l-1.426-.334c-.624-.143-.868-.333-.957-.405-.201-.19-.247-.403-.247-.571 0-.213.111-.379.269-.5.222-.166.601-.188.757-.188.846 0 1.96.381 2.807.903l1.203-2.568-.424-.214c-1.491-.76-2.65-1.047-4.121-1.047-1.224 0-2.427.263-3.429 1.143-.936.832-1.293 1.878-1.293 3.042 0 2.641 2.005 3.189 2.696 3.353l1.492.332c.712.169 1.091.312 1.316.525.133.143.199.309.199.546 0 .264-.111.5-.334.69-.245.216-.58.284-.869.284-1.025 0-2.851-.925-3.765-1.566l-1.358 2.995.668.355c.534.287 1.179.548 1.649.714.689.243 1.781.48 2.939.48 1.07 0 2.429-.237 3.565-1.168.98-.808 1.515-1.81 1.515-3.376 0-.952-.224-1.714-.825-2.356-.624-.666-1.425-.926-2.027-1.069m9.8457 5.1357c-.178 0-.602-.025-.823-.309-.225-.262-.291-.833-.291-1.782v-4.948h1.603l.514-2.711h-2.117v-.424c0-1.18-.022-1.984.113-3.215l-3.855.615c-.068.496-.178 1.347-.134 3.024h-.936v2.711h.936v6.92c0 .69.09 1.642.891 2.307.423.361 1.203.67 2.719.67.801 0 1.759-.119 2.917-.717l-.468-2.379c-.423.213-.779.238-1.069.238m12.7422-1.2363v-8.847l-3.876.665v8.538c-.135.142-.311.309-.491.405-.267.167-.489.215-.734.215-.089 0-.603 0-.825-.262-.157-.192-.178-.452-.178-.666v-8.895l-3.875.665v7.634c0 .831.022 1.737.221 2.475.224.785.913 2.142 3.61 2.142.845 0 1.891-.213 2.873-1.121l.065.215c.156.524.314.765.425.906l3.364-1.287c-.066-.142-.311-.664-.446-1.284-.089-.406-.133-1.048-.133-1.498m8.3535.5478c-.201.236-.468.403-.847.403-.335 0-.801-.143-1.025-.689-.268-.62-.268-2.023-.268-2.33 0-1.975.134-2.688.424-3.117.224-.331.491-.451.891-.451.156 0 .579.047.825.475v5.709zm3.876-13.651l-3.876-.547v3.305c0 .691-.022.621.133 1.951-.29-.19-.757-.429-1.582-.429-1.069 0-2.495.405-3.497 1.712-1.226 1.595-1.403 3.687-1.403 4.971 0 2.45.646 3.971 1.493 4.9.602.664 1.58 1.309 3.118 1.309 1.448 0 2.137-.598 2.495-1.048 0 .142.044.308.178.736h3.364c-.335-.928-.423-1.83-.423-4.876v-11.984zm4.499 12.4362c-1.247 0-2.271 1.096-2.271 2.403 0 1.357 1.024 2.452 2.271 2.452 1.248 0 2.295-1.095 2.295-2.452 0-1.307-1.047-2.403-2.295-2.403m9.2217 1.665c-.423 0-.713-.094-.958-.522-.267-.453-.4-1.166-.4-2.878 0-2.021.244-2.712.511-3.021.268-.308.603-.355.892-.355.334 0 .868.094 1.626.903l1.782-2.496c-1.358-1.31-2.763-1.452-3.541-1.452-1.539 0-3.03.522-4.034 1.712-.712.833-1.468 2.331-1.468 4.851 0 1.855.379 3.52 1.447 4.756.647.761 1.715 1.573 3.765 1.573 1.136 0 2.739-.26 4.121-1.737l-1.626-2.428c-.601.761-1.449 1.094-2.117 1.094m10.5361-.6162c-.244.71-.646.782-.936.782-.511 0-.868-.188-1.045-.881-.092-.354-.18-.924-.18-2.303 0-2.213.068-3.094.513-3.616.245-.261.446-.309.69-.309.312 0 .579.07.824.403.312.428.4 1.143.4 2.951 0 .808-.043 2.306-.266 2.973m-.801-9.205c-1.939 0-3.186.834-3.988 1.761-.779.904-1.56 2.496-1.56 4.969 0 2.069.579 3.402 1.382 4.4.712.88 1.871 1.763 3.943 1.763 1.359 0 2.585-.433 3.651-1.478 1.36-1.332 1.829-3.14 1.829-5.278 0-2.308-.646-3.735-1.471-4.638-.8-.881-2.07-1.499-3.786-1.499m21.4055.6894c-.334-.308-.979-.689-2.182-.689-.915 0-2.117.215-3.275 1.332-.846-1.117-1.826-1.332-2.584-1.332-.379 0-1.627.072-2.785 1.212-.023-.332-.068-.594-.156-.925l-.066-.263-3.563.643c.355 1.805.355 2.924.355 4.113v7.8h3.721v-8.918c.557-.428 1.024-.475 1.357-.475.202 0 .379.023.515.213.042.072.153.285.153.977v8.203h3.722v-8.918c.558-.428 1.023-.475 1.359-.475.2 0 .378.023.512.213.043.072.156.285.156.977v8.203H300v-8.943c0-.76-.022-2.115-.958-2.948"/>
    <path fill="#ED6600" d="M11.8516 59.249c-.579.522-1.248.569-1.782.569-1.069 0-1.382-.284-1.604-.664V48.166c.535-.903 1.559-1.235 2.406-1.235.49 0 1.247.094 1.782 1.139.49.952.535 3.14.535 4.758 0 1.806.044 5.185-1.337 6.421m.936-18.692c-1.783 0-4.322.665-5.168 2.234-.09-.522-.178-1.283-.491-2.186l-7.129 1.284c.714 3.614.714 5.851.714 8.227v26.453l7.752-2.237v-5.04c0-1.617 0-2.615-.356-3.766 1.693.721 2.584.817 3.43.817 4.099 0 6.104-1.863 7.218-3.338 2.049-2.709 2.718-6.277 2.718-10.795 0-2.617-.356-5.804-1.872-8.134-.891-1.379-2.896-3.519-6.816-3.519m19.8701 18.2164c-.178-.714-.356-1.856-.356-4.615 0-4.422.133-6.182 1.025-7.228.489-.524.891-.619 1.38-.619.624 0 1.159.144 1.65.809.623.856.801 2.282.801 5.896 0 1.617-.089 4.615-.534 5.945-.491 1.429-1.293 1.571-1.872 1.571-1.024 0-1.737-.381-2.094-1.759m9.223 4.613c2.717-2.663 3.652-6.278 3.652-10.558 0-4.614-1.292-7.468-2.939-9.276-1.604-1.758-4.144-2.996-7.575-2.996-3.876 0-6.371 1.665-7.975 3.52-1.559 1.808-3.118 4.994-3.118 9.941 0 4.137 1.158 6.8 2.762 8.798 1.426 1.759 3.742 3.527 7.886 3.527 2.718 0 5.168-.863 7.307-2.956m23.0783.6185c1.96-1.618 3.029-3.614 3.029-6.754 0-1.903-.445-3.425-1.648-4.709-1.248-1.332-2.852-1.855-4.054-2.141l-2.852-.665c-1.247-.286-1.738-.666-1.915-.808-.401-.38-.491-.809-.491-1.142 0-.427.223-.761.535-.999.446-.332 1.203-.381 1.515-.381 1.693 0 3.92.761 5.613 1.809l2.406-5.138-.847-.427c-2.984-1.522-5.301-2.093-8.241-2.093-2.451 0-4.857.523-6.862 2.281-1.871 1.666-2.584 3.76-2.584 6.09 0 5.278 4.009 6.373 5.391 6.706l2.985.665c1.426.332 2.183.618 2.628 1.047.268.286.401.619.401 1.094 0 .522-.222.999-.667 1.378-.491.427-1.159.573-1.738.573-2.049 0-5.703-1.856-7.53-3.14l-2.717 5.992 1.336.715c1.07.569 2.362 1.094 3.297 1.424 1.382.486 3.565.961 5.882.961 2.137 0 4.856-.475 7.128-2.338m6.5937-24.0191v18.929c0 1.617.044 4.281 1.515 5.851 1.292 1.386 3.519 1.577 5.168 1.577s3.163-.144 4.989-.77l-1.247-5.135-.489.094c-1.025.192-1.515-.287-1.738-.618-.267-.428-.446-1.187-.446-4.803v-18.218c0-2.851-.134-4.612-.356-6.133l-7.664 1.378c.312 2.237.268 3.426.268 7.848m24.6822 18.9761c-.49 1.429-1.292 1.57-1.871 1.57-1.025 0-1.738-.381-2.094-1.758-.179-.714-.357-1.857-.357-4.616 0-4.422.134-6.182 1.025-7.227.49-.525.891-.619 1.381-.619.624 0 1.159.143 1.648.809.624.855.803 2.281.803 5.896 0 1.617-.09 4.615-.535 5.945m5.97-15.41c-1.604-1.757-4.144-2.995-7.574-2.995-3.876 0-6.371 1.665-7.975 3.519-1.559 1.808-3.119 4.994-3.119 9.942 0 4.136 1.158 6.799 2.763 8.798 1.425 1.758 3.742 3.527 7.885 3.527 2.717 0 5.169-.863 7.307-2.956 2.718-2.663 3.654-6.279 3.654-10.559 0-4.613-1.293-7.467-2.941-9.276m25.529-2.3766h-7.931l-1.736 6.468c-.581 2.188-1.16 4.614-1.515 7.61h-.09c-.401-1.903-1.203-5.517-1.648-7.087l-2.05-7.325-7.849.809 8.517 24.067h5.97l8.332-24.542zm9.0889-.3809l-7.752.761v24.161h7.752v-24.922zm-3.9205-2.3232c2.54 0 4.5-2.141 4.5-4.661 0-2.569-1.96-4.66-4.366-4.66-2.54 0-4.546 2.091-4.546 4.66 0 2.617 2.006 4.661 4.412 4.661m35.1016 23.8071c0-2.035-1.649-3.688-3.688-3.688-2.033 0-3.685 1.653-3.685 3.688s1.652 3.688 3.685 3.688c2.039 0 3.688-1.653 3.688-3.688"/>
  </g>
</svg>
